<svg width="100" height="100" viewBox="0 0 100 100" fill="none" xmlns="http://www.w3.org/2000/svg">
<path opacity="0.2" d="M87.5 21.875V53.9297L78.2344 44.6641C77.6484 44.0785 76.8538 43.7495 76.0254 43.7495C75.1969 43.7495 74.4024 44.0785 73.8164 44.6641L63.793 54.6875L44.3984 35.2891C44.1082 34.9985 43.7636 34.768 43.3842 34.6108C43.0048 34.4535 42.5982 34.3725 42.1875 34.3725C41.7768 34.3725 41.3702 34.4535 40.9908 34.6108C40.6114 34.768 40.2668 34.9985 39.9766 35.2891L25 50.2695V21.875C25 21.0462 25.3292 20.2513 25.9153 19.6653C26.5013 19.0792 27.2962 18.75 28.125 18.75H84.375C85.2038 18.75 85.9987 19.0792 86.5847 19.6653C87.1708 20.2513 87.5 21.0462 87.5 21.875Z" fill="#196366"/>
<path d="M84.375 15.625H28.125C26.4674 15.625 24.8777 16.2835 23.7056 17.4556C22.5335 18.6277 21.875 20.2174 21.875 21.875V28.125H15.625C13.9674 28.125 12.3777 28.7835 11.2056 29.9556C10.0335 31.1277 9.375 32.7174 9.375 34.375V78.125C9.375 79.7826 10.0335 81.3723 11.2056 82.5444C12.3777 83.7165 13.9674 84.375 15.625 84.375H71.875C73.5326 84.375 75.1223 83.7165 76.2944 82.5444C77.4665 81.3723 78.125 79.7826 78.125 78.125V71.875H84.375C86.0326 71.875 87.6223 71.2165 88.7944 70.0444C89.9665 68.8723 90.625 67.2826 90.625 65.625V21.875C90.625 20.2174 89.9665 18.6277 88.7944 17.4556C87.6223 16.2835 86.0326 15.625 84.375 15.625ZM28.125 21.875H84.375V46.3867L80.4414 42.457C79.861 41.8765 79.172 41.416 78.4136 41.1018C77.6552 40.7877 76.8424 40.6259 76.0215 40.6259C75.2006 40.6259 74.3878 40.7877 73.6294 41.1018C72.871 41.416 72.1819 41.8765 71.6016 42.457L63.7891 50.2695L46.6016 33.082C45.4296 31.9108 43.8405 31.2529 42.1836 31.2529C40.5267 31.2529 38.9376 31.9108 37.7656 33.082L28.125 42.7227V21.875ZM71.875 78.125H15.625V34.375H21.875V65.625C21.875 67.2826 22.5335 68.8723 23.7056 70.0444C24.8777 71.2165 26.4674 71.875 28.125 71.875H71.875V78.125ZM84.375 65.625H28.125V51.5625L42.1875 37.5L61.5859 56.8984C62.1719 57.484 62.9665 57.813 63.7949 57.813C64.6234 57.813 65.4179 57.484 66.0039 56.8984L76.0273 46.875L84.375 55.2266V65.625ZM62.5 32.8125C62.5 31.8854 62.7749 30.9791 63.29 30.2083C63.8051 29.4374 64.5371 28.8366 65.3937 28.4818C66.2502 28.127 67.1927 28.0342 68.102 28.2151C69.0113 28.3959 69.8465 28.8424 70.5021 29.4979C71.1576 30.1535 71.6041 30.9887 71.7849 31.898C71.9658 32.8073 71.873 33.7498 71.5182 34.6063C71.1634 35.4629 70.5626 36.1949 69.7917 36.71C69.0209 37.2251 68.1146 37.5 67.1875 37.5C65.9443 37.5 64.752 37.0061 63.8729 36.1271C62.9939 35.248 62.5 34.0557 62.5 32.8125Z" fill="#196366"/>
</svg>
