<svg width="162" height="54" viewBox="0 0 162 54" fill="none" xmlns="http://www.w3.org/2000/svg">
<path fill-rule="evenodd" clip-rule="evenodd" d="M27.4623 44.3342C27.1736 43.7538 26.843 43.1573 26.5238 42.6075C26.0384 41.7708 25.5304 40.9857 24.966 40.2263C24.7677 39.9603 24.5903 39.7362 24.3968 39.4831L23.5147 38.3949C23.3212 38.1208 22.8342 37.6355 22.5762 37.3244L21.3055 35.9701C21.083 35.7299 20.9185 35.5058 20.7121 35.2527C20.4122 34.8851 19.93 34.0694 19.7188 33.6196C18.4319 30.874 18.4755 27.706 19.8929 25.0701C21.5216 22.0456 24.5564 20.1481 28.1944 20.1997C31.621 20.248 33.9576 21.836 35.3751 23.5643C37.2763 25.8794 37.9745 28.6347 37.3408 31.6656C37.0424 33.094 36.399 34.3805 35.6766 35.2898C34.9977 36.1426 35.0106 35.9992 34.4156 36.6553L33.7722 37.3244C33.5819 37.5404 33.361 37.8322 33.1626 38.0289L31.9548 39.4863C31.7646 39.7475 31.5678 39.9635 31.3872 40.2312C31.205 40.5004 31.0405 40.731 30.8422 40.9986C30.6019 41.321 29.536 43.0799 29.3586 43.4556C29.228 43.7296 29.0087 44.0585 28.9087 44.3374H39.8193H42.0011C42.6042 44.2955 43.1895 44.181 43.7458 43.9005C44.0264 43.7587 44.1845 43.6716 44.4215 43.4943C45.6277 42.5898 46.1921 41.3871 46.1921 39.7975V22.2907C46.1921 21.2766 46.0776 20.4157 45.5745 19.6644C45.3084 19.2662 44.9117 18.7938 44.5328 18.5052C44.3215 18.344 44.1425 18.2054 43.8894 18.0683C42.5929 17.367 41.0013 16.3513 39.7048 15.6484C38.4986 14.9955 36.7973 13.9589 35.5702 13.2559C35.0977 12.9851 34.6526 12.7239 34.1705 12.4547C33.9286 12.3209 33.719 12.1822 33.4868 12.0565L31.4033 10.857C31.176 10.7264 30.9615 10.5926 30.7196 10.4604C29.8569 9.98963 29.2345 9.70588 28.5072 9.66235H28.1041C27.7283 9.68331 27.3139 9.76392 26.8205 9.90741C26.3093 10.0573 25.4837 10.5571 25.0079 10.8376L20.875 13.2318C20.6331 13.3752 20.4347 13.4913 20.1896 13.6284C19.9397 13.767 19.7381 13.8992 19.4817 14.0395C18.1756 14.7504 16.6614 15.7178 15.3487 16.4336L12.5864 18.0345C12.0414 18.3618 12.1204 18.3198 11.6286 18.6987C11.5109 18.789 11.4399 18.868 11.3286 18.9792C10.3079 19.9997 10.2369 20.8461 10.2369 22.252C10.2369 23.7239 10.1982 25.1168 10.1982 26.6146V39.704C10.1982 40.7567 10.3563 41.5306 10.8626 42.3222C11.1593 42.7849 11.477 43.1299 11.9188 43.4668C12.0349 43.5555 12.1156 43.6119 12.2365 43.6893C12.9622 44.1472 13.7378 44.2955 14.5392 44.3374H16.492C20.1493 44.3374 23.805 44.3374 27.4623 44.3374V44.3342Z" fill="#0F3B3D"/>
<path fill-rule="evenodd" clip-rule="evenodd" d="M22.6038 29.7761C22.6941 31.635 23.6197 33.2956 25.1242 34.2758C26.053 34.8803 27.2157 35.2383 28.3896 35.1834C29.2733 35.1415 29.9474 34.9529 30.6488 34.6224C31.2116 34.358 31.9663 33.8018 32.2565 33.4536C33.2015 32.3202 33.8546 31.0917 33.7804 29.4295C33.7417 28.5525 33.5627 27.8754 33.2321 27.1741C32.3194 25.2298 30.2118 23.911 28.0026 24.0109C26.8045 24.0657 25.7676 24.4366 24.8662 25.0976C24.3389 25.4845 23.8906 25.9843 23.5197 26.5308C22.9086 27.4288 22.549 28.6412 22.6054 29.7778L22.6038 29.7761Z" fill="#0F3B3D"/>
<path d="M70.1601 26.2327V17.0141C70.1601 16.2113 69.5393 15.5906 68.7362 15.5906C67.9332 15.5906 67.2865 16.2113 67.2865 17.0141V26.2327C67.2865 28.7703 65.2402 30.8419 62.6763 30.8419C60.1381 30.8419 58.066 28.7703 58.066 26.2327V17.0141C58.066 16.2113 57.3919 15.5906 56.6163 15.5906C55.8132 15.5906 55.1924 16.2113 55.1924 17.0141V26.2327C55.1924 30.3502 58.5078 33.7165 62.6779 33.7165C66.8221 33.7165 70.1633 30.3502 70.1633 26.2327H70.1601Z" fill="#0F3B3D"/>
<path d="M73.2549 17.0141V32.2913C73.2549 33.0684 73.9015 33.7149 74.6788 33.7149C75.4818 33.7149 76.1285 33.0684 76.1285 32.2913V17.0141C76.1285 16.2371 75.4802 15.5906 74.6788 15.5906C73.9015 15.5906 73.2549 16.2371 73.2549 17.0141Z" fill="#0F3B3D"/>
<path d="M85.4649 33.7939C87.1742 33.7939 88.7287 33.0426 89.7897 31.8254C90.9556 30.6856 91.6022 29.0814 91.6022 27.2677C91.6022 25.5072 90.9556 23.9788 89.7897 22.7358C88.7271 21.5186 87.1742 20.7673 85.4649 20.7673C83.6781 20.7673 82.1752 21.5186 81.0094 22.7358C79.8951 23.9788 79.2227 25.5072 79.2227 27.2677C79.2227 29.0798 79.8967 30.6856 81.0094 31.8254C82.1752 33.0426 83.6765 33.7939 85.4649 33.7939ZM82.9783 24.5753C83.6249 24.0062 84.4812 23.5919 85.4649 23.5919C86.3711 23.5919 87.2 24.0062 87.8482 24.5753C88.4948 25.275 88.8577 26.2069 88.8577 27.2693C88.8577 28.3833 88.4948 29.2894 87.8482 30.0133C87.2016 30.634 86.3711 30.9709 85.4649 30.9709C84.4812 30.9709 83.6265 30.634 82.9783 30.0133C82.3833 29.2878 82.0462 28.3817 82.0462 27.2693C82.0462 26.2069 82.3833 25.275 82.9783 24.5753Z" fill="#0F3B3D"/>
<path d="M62.6743 38.9272C63.572 38.9272 64.2997 38.1996 64.2997 37.3021C64.2997 36.4046 63.572 35.677 62.6743 35.677C61.7766 35.677 61.0488 36.4046 61.0488 37.3021C61.0488 38.1996 61.7766 38.9272 62.6743 38.9272Z" fill="#0F3B3D"/>
<path d="M107.12 15.073C104.634 15.073 102.355 16.1354 100.775 17.8444C99.1688 19.5533 98.2109 21.8329 98.2109 24.3963C98.2109 26.9597 99.1688 29.2651 100.775 30.9483C102.355 32.6314 104.634 33.7196 107.12 33.7196C109.504 33.7196 111.782 32.6314 113.311 30.9483C114.917 29.2651 115.926 26.9597 115.926 24.3963C115.926 21.8329 114.917 19.5549 113.311 17.8444C111.782 16.1354 109.504 15.073 107.12 15.073ZM111.213 28.9008C110.124 30.0664 108.675 30.7645 107.12 30.7645C105.463 30.7645 104.013 30.0648 102.924 28.9008C101.836 27.7868 101.164 26.1552 101.164 24.3947C101.164 22.6342 101.838 21.0026 102.924 19.8628C104.013 18.6972 105.463 18.0249 107.12 18.0249C108.675 18.0249 110.124 18.6988 111.213 19.8628C112.276 21.0026 112.974 22.6342 112.974 24.3947C112.974 26.1552 112.274 27.7868 111.213 28.9008Z" fill="#0F3B3D"/>
<path d="M131.766 23.5403C133.19 23.5403 134.382 24.7317 134.382 26.2084V32.3445C134.382 33.0957 135.028 33.7164 135.78 33.7164C136.531 33.7164 137.152 33.0957 137.152 32.3445V26.2084C137.152 23.2049 134.743 20.7705 131.764 20.7705C130.133 20.7705 128.657 21.4444 127.698 22.5568C126.714 21.4428 125.263 20.7705 123.631 20.7705C120.656 20.7705 118.243 23.1824 118.243 26.1826C118.243 26.1826 118.243 26.1826 118.243 26.2084V32.3445C118.243 33.0393 118.735 33.5617 119.357 33.7164C119.435 33.6906 119.512 33.7164 119.617 33.7164C120.16 33.7164 120.68 33.3537 120.912 32.8878C120.912 32.8362 120.912 32.7846 120.912 32.7588C120.964 32.7072 120.964 32.6556 120.989 32.604C120.989 32.604 120.989 32.5524 120.989 32.5266C120.989 32.475 121.015 32.3977 121.015 32.3445V26.2084C121.015 24.7317 122.207 23.5403 123.631 23.5403C125.08 23.5403 126.272 24.7059 126.298 26.1294C126.298 26.1552 126.298 26.181 126.298 26.2068V32.3428C126.298 33.0941 126.972 33.7148 127.696 33.7148C128.447 33.7148 129.068 33.0941 129.068 32.3428V26.2068C129.068 26.181 129.068 26.1552 129.068 26.1294C129.12 24.7059 130.286 23.5403 131.761 23.5403H131.766Z" fill="#0F3B3D"/>
<path d="M145.639 20.7688C143.878 20.7688 142.35 21.5201 141.236 22.7115C140.121 23.8771 139.475 25.4829 139.475 27.2692C139.475 29.0297 140.121 30.6354 141.236 31.8268C142.35 32.9925 143.877 33.7179 145.639 33.7179C146.934 33.7179 148.1 33.3036 149.084 32.6039C149.239 33.2246 149.758 33.7179 150.43 33.7179C151.182 33.7179 151.803 33.0972 151.803 32.346V27.2708C151.803 22.9743 148.186 20.7704 145.638 20.7704L145.639 20.7688ZM148.049 29.9357C147.426 30.5822 146.546 30.945 145.639 30.945C144.707 30.945 143.827 30.5822 143.23 29.9357C142.609 29.2618 142.247 28.33 142.247 27.2692C142.247 26.1809 142.609 25.2491 143.23 24.601C143.825 23.9013 144.707 23.5385 145.639 23.5385C146.546 23.5385 147.426 23.9013 148.049 24.601C148.669 25.2491 149.058 26.1809 149.058 27.2692C149.058 28.3316 148.669 29.2634 148.049 29.9357Z" fill="#0F3B3D"/>
<path fill-rule="evenodd" clip-rule="evenodd" d="M107.068 35.6768C107.966 35.6768 108.693 36.4039 108.693 37.3019C108.693 38.1998 107.966 38.9269 107.068 38.9269C106.17 38.9269 105.442 38.1998 105.442 37.3019C105.442 36.4039 106.17 35.6768 107.068 35.6768Z" fill="#0F3B3D"/>
</svg>
