<svg width="96" height="59" viewBox="0 0 96 59" fill="none" xmlns="http://www.w3.org/2000/svg">
<path d="M93.2625 0.31715C94.0237 0.632752 94.6742 1.16697 95.1318 1.85225C95.5894 2.53754 95.8335 3.34313 95.8333 4.16715V54.1671C95.8332 54.9911 95.5887 55.7965 95.1308 56.4816C94.673 57.1666 94.0223 57.7005 93.2611 58.0158C92.4998 58.3311 91.6622 58.4136 90.854 58.2529C90.0459 58.0922 89.3035 57.6955 88.7208 57.113L63.7208 32.113C62.9397 31.3316 62.5009 30.272 62.5009 29.1671C62.5009 28.0623 62.9397 27.0027 63.7208 26.2213L88.7208 1.22132C89.3035 0.638264 90.0461 0.241142 90.8545 0.080196C91.6629 -0.0807498 92.5009 0.0017136 93.2625 0.31715ZM10 4.16715H44.1667C45.4799 4.16715 46.7802 4.42581 47.9935 4.92835C49.2068 5.4309 50.3091 6.1675 51.2377 7.09608C52.1663 8.02467 52.9029 9.12706 53.4055 10.3403C53.908 11.5536 54.1667 12.8539 54.1667 14.1671V44.1671C54.1667 45.4804 53.908 46.7807 53.4055 47.994C52.9029 49.2072 52.1663 50.3096 51.2377 51.2382C50.3091 52.1668 49.2068 52.9034 47.9935 53.4059C46.7802 53.9085 45.4799 54.1671 44.1667 54.1671H10C7.34784 54.1671 4.8043 53.1136 2.92893 51.2382C1.05357 49.3629 0 46.8193 0 44.1671V14.1671C0 12.8539 0.258657 11.5536 0.761204 10.3403C1.26375 9.12706 2.00035 8.02467 2.92893 7.09608C4.8043 5.22072 7.34784 4.16715 10 4.16715Z" fill="#196366"/>
</svg>
